<svg version="1.1" xmlns="http://www.w3.org/2000/svg" viewBox="0 0 967.0565302409232 615.5121307373047" width="967.0565302409232" height="615.5121307373047">
  <!-- svg-source:excalidraw -->
  
  <defs>
    <style class="style-fonts">
      @font-face {
        font-family: "Virgil";
        src: url("https://excalidraw.com/Virgil.woff2");
      }
      @font-face {
        font-family: "Cascadia";
        src: url("https://excalidraw.com/Cascadia.woff2");
      }
      @font-face {
        font-family: "Assistant";
        src: url("https://excalidraw.com/Assistant-Regular.woff2");
      }
    </style>
    
  </defs>
  <rect x="0" y="0" width="967.0565302409232" height="615.5121307373047" fill="#ffffff"></rect><g stroke-linecap="round" transform="translate(10 77.90245056152344) rotate(0 104.97561645507812 130.73167419433594)"><path d="M32 0 C90.24 -0.96, 144.25 -0.64, 177.95 0 M32 0 C79.98 -0.04, 130.11 0.47, 177.95 0 M177.95 0 C198.56 -0.06, 208.06 9.58, 209.95 32 M177.95 0 C200.2 -0.61, 208.86 10.88, 209.95 32 M209.95 32 C211.27 79.46, 211.57 125.44, 209.95 229.46 M209.95 32 C209.27 92.13, 208.63 149.9, 209.95 229.46 M209.95 229.46 C210.5 250.99, 197.56 259.93, 177.95 261.46 M209.95 229.46 C210 249.43, 199.06 261.34, 177.95 261.46 M177.95 261.46 C147.58 260.89, 116.79 260.71, 32 261.46 M177.95 261.46 C126.48 260.51, 74.2 260.47, 32 261.46 M32 261.46 C11.71 261.66, 0.71 250.16, 0 229.46 M32 261.46 C12.79 260.65, 0.9 251.46, 0 229.46 M0 229.46 C-1.42 161.21, -0.33 95.68, 0 32 M0 229.46 C0.68 162.93, 0.08 95.5, 0 32 M0 32 C-0.57 10.08, 11.32 0.3, 32 0 M0 32 C-0.66 10.03, 8.97 1.47, 32 0" stroke="#1e1e1e" stroke-width="2" fill="none"></path></g><g stroke-linecap="round"><g transform="translate(11.56097412109375 136.4390411376953) rotate(0 103.80484008789062 0.3902435302734375)"><path d="M0.34 0.28 C34.8 0.38, 172.43 1.34, 207.09 1.6 M-0.95 -0.62 C33.29 -0.93, 171.06 -0.21, 205.88 -0.1" stroke="#1e1e1e" stroke-width="2" fill="none"></path></g></g><mask></mask><g transform="translate(61.512237548828125 100.53657531738281) rotate(0 45.969947814941406 12.5)"><text x="0" y="0" font-family="Virgil, Segoe UI Emoji" font-size="20px" fill="#1e1e1e" text-anchor="start" style="white-space: pre;" direction="ltr" dominant-baseline="text-before-edge">Theatres</text></g><g transform="translate(38.8780517578125 164.53660583496094) rotate(0 50.45994567871094 62.5)"><text x="0" y="0" font-family="Virgil, Segoe UI Emoji" font-size="20px" fill="#1e1e1e" text-anchor="start" style="white-space: pre;" direction="ltr" dominant-baseline="text-before-edge">id</text><text x="0" y="25" font-family="Virgil, Segoe UI Emoji" font-size="20px" fill="#1e1e1e" text-anchor="start" style="white-space: pre;" direction="ltr" dominant-baseline="text-before-edge">name</text><text x="0" y="50" font-family="Virgil, Segoe UI Emoji" font-size="20px" fill="#1e1e1e" text-anchor="start" style="white-space: pre;" direction="ltr" dominant-baseline="text-before-edge">address</text><text x="0" y="75" font-family="Virgil, Segoe UI Emoji" font-size="20px" fill="#1e1e1e" text-anchor="start" style="white-space: pre;" direction="ltr" dominant-baseline="text-before-edge">adminName</text><text x="0" y="100" font-family="Virgil, Segoe UI Emoji" font-size="20px" fill="#1e1e1e" text-anchor="start" style="white-space: pre;" direction="ltr" dominant-baseline="text-before-edge"></text></g><g stroke-linecap="round" transform="translate(384.6341552734375 10) rotate(0 97.95120239257812 140.8780746459961)"><path d="M32 0 C65.39 1.77, 104.41 -0.56, 163.9 0 M32 0 C65.6 0, 99.77 0.19, 163.9 0 M163.9 0 C185.55 1.84, 194.52 11.35, 195.9 32 M163.9 0 C187.19 -0.57, 198.01 9.76, 195.9 32 M195.9 32 C196.83 115.1, 195.59 197.68, 195.9 249.76 M195.9 32 C196.56 83.28, 197.76 134.74, 195.9 249.76 M195.9 249.76 C197.17 270.37, 184.77 281.75, 163.9 281.76 M195.9 249.76 C194.9 271.78, 183.27 282.63, 163.9 281.76 M163.9 281.76 C129.42 282.62, 94.26 282.88, 32 281.76 M163.9 281.76 C120.56 282.22, 78.63 282.4, 32 281.76 M32 281.76 C8.94 282.33, 1.96 269.87, 0 249.76 M32 281.76 C8.76 281.24, 1.71 272.7, 0 249.76 M0 249.76 C2.25 195.95, 0.87 140.91, 0 32 M0 249.76 C1.05 166.26, 1.2 82.97, 0 32 M0 32 C-0.41 11.92, 10.91 1.66, 32 0 M0 32 C0.47 10.01, 10.5 0.05, 32 0" stroke="#1e1e1e" stroke-width="2" fill="none"></path></g><g stroke-linecap="round"><g transform="translate(383.85357666015625 65.41464233398438) rotate(0 96.00003051757812 0)"><path d="M0.26 0.5 C31.96 0.67, 159.05 1.28, 191.1 1.2 M-1.06 -0.28 C30.93 -0.43, 161.15 -0.57, 193.34 -0.3" stroke="#1e1e1e" stroke-width="2" fill="none"></path></g></g><mask></mask><g transform="translate(444.73162841796875 30.29266357421875) rotate(0 31.51996612548828 12.5)"><text x="0" y="0" font-family="Virgil, Segoe UI Emoji" font-size="20px" fill="#1e1e1e" text-anchor="start" style="white-space: pre;" direction="ltr" dominant-baseline="text-before-edge">Movies</text></g><g transform="translate(417.41455078125 97.41464233398438) rotate(0 51.07994079589844 87.5)"><text x="0" y="0" font-family="Virgil, Segoe UI Emoji" font-size="20px" fill="#1e1e1e" text-anchor="start" style="white-space: pre;" direction="ltr" dominant-baseline="text-before-edge">id</text><text x="0" y="25" font-family="Virgil, Segoe UI Emoji" font-size="20px" fill="#1e1e1e" text-anchor="start" style="white-space: pre;" direction="ltr" dominant-baseline="text-before-edge">name</text><text x="0" y="50" font-family="Virgil, Segoe UI Emoji" font-size="20px" fill="#1e1e1e" text-anchor="start" style="white-space: pre;" direction="ltr" dominant-baseline="text-before-edge">image</text><text x="0" y="75" font-family="Virgil, Segoe UI Emoji" font-size="20px" fill="#1e1e1e" text-anchor="start" style="white-space: pre;" direction="ltr" dominant-baseline="text-before-edge">language</text><text x="0" y="100" font-family="Virgil, Segoe UI Emoji" font-size="20px" fill="#1e1e1e" text-anchor="start" style="white-space: pre;" direction="ltr" dominant-baseline="text-before-edge">rating</text><text x="0" y="125" font-family="Virgil, Segoe UI Emoji" font-size="20px" fill="#1e1e1e" text-anchor="start" style="white-space: pre;" direction="ltr" dominant-baseline="text-before-edge">duration</text><text x="0" y="150" font-family="Virgil, Segoe UI Emoji" font-size="20px" fill="#1e1e1e" text-anchor="start" style="white-space: pre;" direction="ltr" dominant-baseline="text-before-edge">description</text></g><g stroke-linecap="round" transform="translate(734.2926635742188 75.56097412109375) rotate(0 109.65850830078125 138.1463394165039)"><path d="M32 0 C82.36 -0.89, 133.16 -1.67, 187.32 0 M32 0 C89.77 0.59, 147.4 1.05, 187.32 0 M187.32 0 C210.62 0.54, 221.26 11.78, 219.32 32 M187.32 0 C207.11 -0.14, 217.67 11.54, 219.32 32 M219.32 32 C219.56 85.64, 220.95 140.03, 219.32 244.29 M219.32 32 C221.02 83.83, 220.76 134.74, 219.32 244.29 M219.32 244.29 C218.13 265.76, 210.26 274.29, 187.32 276.29 M219.32 244.29 C218.64 264.66, 206.95 276.28, 187.32 276.29 M187.32 276.29 C135.74 277.78, 84.95 275.18, 32 276.29 M187.32 276.29 C146.23 275.53, 106.16 276.9, 32 276.29 M32 276.29 C10.95 277.26, 1.14 266.71, 0 244.29 M32 276.29 C8.8 276.21, -1.95 265.82, 0 244.29 M0 244.29 C-3.25 192.15, -3.26 138.11, 0 32 M0 244.29 C-1.83 159.87, -0.62 76.04, 0 32 M0 32 C-1.71 9.11, 12.3 -1.61, 32 0 M0 32 C-0.84 10, 12.46 0.48, 32 0" stroke="#1e1e1e" stroke-width="2" fill="none"></path></g><g stroke-linecap="round"><g transform="translate(732.7316284179688 130.97561645507812) rotate(0 112 1.1707382202148438)"><path d="M-0.96 1.06 C36.61 1.15, 186.86 1.35, 224.32 1.68 M0.73 0.58 C38.28 1.31, 186.51 2.79, 223.55 2.87" stroke="#1e1e1e" stroke-width="2" fill="none"></path></g></g><mask></mask><g transform="translate(790.4877319335938 101.31709289550781) rotate(0 22.33997344970703 12.5)"><text x="0" y="0" font-family="Virgil, Segoe UI Emoji" font-size="20px" fill="#1e1e1e" text-anchor="start" style="white-space: pre;" direction="ltr" dominant-baseline="text-before-edge">User</text></g><g transform="translate(767.8535766601562 156.73170471191406) rotate(0 62.849937438964844 125)"><text x="0" y="0" font-family="Virgil, Segoe UI Emoji" font-size="20px" fill="#1e1e1e" text-anchor="start" style="white-space: pre;" direction="ltr" dominant-baseline="text-before-edge">id</text><text x="0" y="25" font-family="Virgil, Segoe UI Emoji" font-size="20px" fill="#1e1e1e" text-anchor="start" style="white-space: pre;" direction="ltr" dominant-baseline="text-before-edge">name</text><text x="0" y="50" font-family="Virgil, Segoe UI Emoji" font-size="20px" fill="#1e1e1e" text-anchor="start" style="white-space: pre;" direction="ltr" dominant-baseline="text-before-edge">mail</text><text x="0" y="75" font-family="Virgil, Segoe UI Emoji" font-size="20px" fill="#1e1e1e" text-anchor="start" style="white-space: pre;" direction="ltr" dominant-baseline="text-before-edge">password</text><text x="0" y="100" font-family="Virgil, Segoe UI Emoji" font-size="20px" fill="#1e1e1e" text-anchor="start" style="white-space: pre;" direction="ltr" dominant-baseline="text-before-edge">location/lang</text><text x="0" y="125" font-family="Virgil, Segoe UI Emoji" font-size="20px" fill="#1e1e1e" text-anchor="start" style="white-space: pre;" direction="ltr" dominant-baseline="text-before-edge">isAdmin</text><text x="0" y="150" font-family="Virgil, Segoe UI Emoji" font-size="20px" fill="#1e1e1e" text-anchor="start" style="white-space: pre;" direction="ltr" dominant-baseline="text-before-edge">noOfBookings</text><text x="0" y="175" font-family="Virgil, Segoe UI Emoji" font-size="20px" fill="#1e1e1e" text-anchor="start" style="white-space: pre;" direction="ltr" dominant-baseline="text-before-edge"></text><text x="0" y="200" font-family="Virgil, Segoe UI Emoji" font-size="20px" fill="#1e1e1e" text-anchor="start" style="white-space: pre;" direction="ltr" dominant-baseline="text-before-edge"></text><text x="0" y="225" font-family="Virgil, Segoe UI Emoji" font-size="20px" fill="#1e1e1e" text-anchor="start" style="white-space: pre;" direction="ltr" dominant-baseline="text-before-edge"></text></g><g stroke-linecap="round" transform="translate(245.70709228515625 339.3657684326172) rotate(0 81.17074584960938 122.92681884765625)"><path d="M32 0 C53.34 -2.71, 73.94 0.49, 130.34 0 M32 0 C55.37 -0.17, 77.23 0.03, 130.34 0 M130.34 0 C153.18 0.91, 164.29 10.58, 162.34 32 M130.34 0 C151.24 1.31, 160.99 9.34, 162.34 32 M162.34 32 C165.36 71.25, 162.07 113.25, 162.34 213.85 M162.34 32 C163.75 93.9, 162.84 155.44, 162.34 213.85 M162.34 213.85 C162.82 233.86, 150.09 245.31, 130.34 245.85 M162.34 213.85 C163.65 236.35, 150.9 245.35, 130.34 245.85 M130.34 245.85 C108.91 246.93, 85.18 245.95, 32 245.85 M130.34 245.85 C91.68 244.73, 53.85 244.66, 32 245.85 M32 245.85 C12.02 244.3, -0.2 235.64, 0 213.85 M32 245.85 C12.05 246.55, -1.45 233.98, 0 213.85 M0 213.85 C-1.74 151.62, -0.14 86.13, 0 32 M0 213.85 C1.1 145.28, 1.85 75.73, 0 32 M0 32 C1.97 9.12, 10.3 -0.76, 32 0 M0 32 C-1.81 9.51, 8.53 -0.63, 32 0" stroke="#1e1e1e" stroke-width="2" fill="none"></path></g><g stroke-linecap="round"><g transform="translate(244.92669677734375 408.82920837402344) rotate(0 83.90243530273438 0.390289306640625)"><path d="M1.04 0.76 C29.17 0.84, 140.62 0.58, 168.22 0.74 M0.13 0.11 C28.19 0.38, 139.36 2.29, 167.49 2.25" stroke="#1e1e1e" stroke-width="2" fill="none"></path></g></g><mask></mask><g transform="translate(298 371.36585998535156) rotate(0 28.079971313476562 12.5)"><text x="0" y="0" font-family="Virgil, Segoe UI Emoji" font-size="20px" fill="#1e1e1e" text-anchor="start" style="white-space: pre;" direction="ltr" dominant-baseline="text-before-edge">Shows</text></g><g transform="translate(271.46337890625 410.39024353027344) rotate(0 61.48992919921875 87.5)"><text x="0" y="0" font-family="Virgil, Segoe UI Emoji" font-size="20px" fill="#1e1e1e" text-anchor="start" style="white-space: pre;" direction="ltr" dominant-baseline="text-before-edge">id</text><text x="0" y="25" font-family="Virgil, Segoe UI Emoji" font-size="20px" fill="#1e1e1e" text-anchor="start" style="white-space: pre;" direction="ltr" dominant-baseline="text-before-edge">movieID</text><text x="0" y="50" font-family="Virgil, Segoe UI Emoji" font-size="20px" fill="#1e1e1e" text-anchor="start" style="white-space: pre;" direction="ltr" dominant-baseline="text-before-edge">theatreID</text><text x="0" y="75" font-family="Virgil, Segoe UI Emoji" font-size="20px" fill="#1e1e1e" text-anchor="start" style="white-space: pre;" direction="ltr" dominant-baseline="text-before-edge">bookings</text><text x="0" y="100" font-family="Virgil, Segoe UI Emoji" font-size="20px" fill="#1e1e1e" text-anchor="start" style="white-space: pre;" direction="ltr" dominant-baseline="text-before-edge">seats</text><text x="0" y="125" font-family="Virgil, Segoe UI Emoji" font-size="20px" fill="#1e1e1e" text-anchor="start" style="white-space: pre;" direction="ltr" dominant-baseline="text-before-edge">timings</text><text x="0" y="150" font-family="Virgil, Segoe UI Emoji" font-size="20px" fill="#1e1e1e" text-anchor="start" style="white-space: pre;" direction="ltr" dominant-baseline="text-before-edge">bookedSeats</text></g><g stroke-linecap="round"><g transform="translate(136.5722100836649 340.3657989501953) rotate(0 59.64071380582379 48.98000419958913)"><path d="M1.16 0.53 C20.87 16.78, 99.24 80.65, 118.81 96.9 M0.31 -0.23 C19.77 16.17, 97.49 81.28, 117.61 97.89" stroke="#1e1e1e" stroke-width="2" fill="none"></path></g><g transform="translate(136.5722100836649 340.3657989501953) rotate(0 59.64071380582379 48.98000419958913)"><path d="M94.08 89.43 C103.12 91.35, 108.66 93.84, 117.61 97.89 M94.08 89.43 C101.28 92.24, 108.44 94.14, 117.61 97.89" stroke="#1e1e1e" stroke-width="2" fill="none"></path></g><g transform="translate(136.5722100836649 340.3657989501953) rotate(0 59.64071380582379 48.98000419958913)"><path d="M105.02 76.28 C110.19 82.89, 111.92 89.96, 117.61 97.89 M105.02 76.28 C108.76 83.12, 112.56 89.05, 117.61 97.89" stroke="#1e1e1e" stroke-width="2" fill="none"></path></g></g><mask></mask><g stroke-linecap="round"><g transform="translate(405.0735239102321 289.285074908336) rotate(0 -26.200381217947324 34.79646553655465)"><path d="M0.63 1.1 C-8.28 12.75, -43.9 58.56, -52.71 69.84 M-0.49 0.64 C-9.66 11.91, -45.09 56.34, -53.82 67.85" stroke="#1e1e1e" stroke-width="2" fill="none"></path></g><g transform="translate(405.0735239102321 289.285074908336) rotate(0 -26.200381217947324 34.79646553655465)"><path d="M-46.1 44.07 C-47.09 52.27, -51.32 61.79, -53.82 67.85 M-46.1 44.07 C-48.15 49.67, -49.84 55.84, -53.82 67.85" stroke="#1e1e1e" stroke-width="2" fill="none"></path></g><g transform="translate(405.0735239102321 289.285074908336) rotate(0 -26.200381217947324 34.79646553655465)"><path d="M-32.62 54.6 C-38.52 59.03, -47.66 64.71, -53.82 67.85 M-32.62 54.6 C-37.86 57.82, -42.7 61.53, -53.82 67.85" stroke="#1e1e1e" stroke-width="2" fill="none"></path></g></g><mask></mask><g stroke-linecap="round" transform="translate(582.0975341796875 401.02439880371094) rotate(0 108.09756469726562 102.24386596679688)"><path d="M32 0 C64.54 0.05, 97.92 -1.59, 184.2 0 M32 0 C68.01 -0.01, 104.38 0.8, 184.2 0 M184.2 0 C206.35 -1.98, 217.9 11.71, 216.2 32 M184.2 0 C205 -0.29, 215.36 12.71, 216.2 32 M216.2 32 C216.03 78.09, 217.81 120.72, 216.2 172.49 M216.2 32 C215.13 78.63, 216.48 127.58, 216.2 172.49 M216.2 172.49 C217.11 192.89, 204.23 204.02, 184.2 204.49 M216.2 172.49 C216.06 195.36, 205.24 202.31, 184.2 204.49 M184.2 204.49 C133.73 204.87, 82.95 204.74, 32 204.49 M184.2 204.49 C136.97 206.26, 88.79 205.4, 32 204.49 M32 204.49 C9.21 202.66, -0.13 195.71, 0 172.49 M32 204.49 C12.56 203.86, 1.9 194.16, 0 172.49 M0 172.49 C-1.22 124.99, 2.36 74.19, 0 32 M0 172.49 C0.68 136.33, 0.78 99.46, 0 32 M0 32 C-0.56 10.36, 9.3 -1.41, 32 0 M0 32 C-0.77 9.84, 12.88 1.02, 32 0" stroke="#1e1e1e" stroke-width="2" fill="none"></path></g><g stroke-linecap="round"><g transform="translate(580.5365600585938 453.31700134277344) rotate(0 109.65850830078125 1.1707763671875)"><path d="M-0.53 0.44 C36.06 0.82, 183.6 1.54, 220.43 1.68 M1.4 -0.37 C37.84 0.2, 183.59 2.47, 220.06 2.86" stroke="#1e1e1e" stroke-width="2" fill="none"></path></g></g><mask></mask><g transform="translate(627.3658447265625 423.65855407714844) rotate(0 40.51995849609375 12.5)"><text x="0" y="0" font-family="Virgil, Segoe UI Emoji" font-size="20px" fill="#1e1e1e" text-anchor="start" style="white-space: pre;" direction="ltr" dominant-baseline="text-before-edge">Bookings</text></g><g transform="translate(608.6341552734375 470.48777770996094) rotate(0 63.029930114746094 50)"><text x="0" y="0" font-family="Virgil, Segoe UI Emoji" font-size="20px" fill="#1e1e1e" text-anchor="start" style="white-space: pre;" direction="ltr" dominant-baseline="text-before-edge">id</text><text x="0" y="25" font-family="Virgil, Segoe UI Emoji" font-size="20px" fill="#1e1e1e" text-anchor="start" style="white-space: pre;" direction="ltr" dominant-baseline="text-before-edge">userID</text><text x="0" y="50" font-family="Virgil, Segoe UI Emoji" font-size="20px" fill="#1e1e1e" text-anchor="start" style="white-space: pre;" direction="ltr" dominant-baseline="text-before-edge">showID</text><text x="0" y="75" font-family="Virgil, Segoe UI Emoji" font-size="20px" fill="#1e1e1e" text-anchor="start" style="white-space: pre;" direction="ltr" dominant-baseline="text-before-edge">seatsBooked</text></g><g stroke-linecap="round"><g transform="translate(411.170654296875 447.8536834716797) rotate(0 87.4146728515625 8.585357666015625)"><path d="M0.83 0.13 C30.02 3.36, 146.15 15.4, 175.22 18.31 M-0.19 -0.85 C28.86 2.16, 145.33 14.06, 174.48 16.79" stroke="#2f9e44" stroke-width="2" fill="none"></path></g><g transform="translate(411.170654296875 447.8536834716797) rotate(0 87.4146728515625 8.585357666015625)"><path d="M150.26 23 C158.04 21.56, 167.25 19.69, 174.48 16.79 M150.26 23 C158.79 21.72, 166.3 18.62, 174.48 16.79" stroke="#2f9e44" stroke-width="2" fill="none"></path></g><g transform="translate(411.170654296875 447.8536834716797) rotate(0 87.4146728515625 8.585357666015625)"><path d="M151.94 5.98 C159.04 9.83, 167.73 13.24, 174.48 16.79 M151.94 5.98 C159.96 10.47, 166.89 13.15, 174.48 16.79" stroke="#2f9e44" stroke-width="2" fill="none"></path></g></g><mask></mask><g stroke-linecap="round"><g transform="translate(757.7073364257812 344.0487823486328) rotate(0 -25.36590576171875 28.487808227539062)"><path d="M-0.66 -0.68 C-9.3 8.58, -42.32 46.94, -50.86 56.42 M1.2 1.57 C-7.7 10.91, -43.4 48.42, -51.87 57.66" stroke="#2f9e44" stroke-width="2" fill="none"></path></g><g transform="translate(757.7073364257812 344.0487823486328) rotate(0 -25.36590576171875 28.487808227539062)"><path d="M-42.05 34.67 C-46.8 43.25, -50.38 50.36, -51.87 57.66 M-42.05 34.67 C-43.28 39.25, -47.36 44.92, -51.87 57.66" stroke="#2f9e44" stroke-width="2" fill="none"></path></g><g transform="translate(757.7073364257812 344.0487823486328) rotate(0 -25.36590576171875 28.487808227539062)"><path d="M-29.57 46.36 C-39.21 50.38, -47.58 52.99, -51.87 57.66 M-29.57 46.36 C-33.78 48.16, -40.75 51.13, -51.87 57.66" stroke="#2f9e44" stroke-width="2" fill="none"></path></g></g><mask></mask></svg>